<?xml version="1.0" standalone="no"?><!DOCTYPE svg PUBLIC "-//W3C//DTD SVG 1.1//EN" "http://www.w3.org/Graphics/SVG/1.1/DTD/svg11.dtd"><svg t="1605941561563" class="icon" viewBox="0 0 1024 1024" version="1.1" xmlns="http://www.w3.org/2000/svg" p-id="3861" width="128" height="128" xmlns:xlink="http://www.w3.org/1999/xlink"><defs><style type="text/css"></style></defs><path d="M620.648001 375.256616c13.33061 0 24.203238-10.850116 24.203238-24.203238L644.851239 157.429519c0-40.039925-32.570813-72.608691-72.609715-72.608691L136.586306 84.820827c-40.037878 0-72.608691 32.568766-72.608691 72.608691l0 580.871577c0 36.115546 26.000164 75.540464 59.160401 89.722464l249.854535 107.021455c8.625448 3.687996 17.396205 5.579065 25.76378 5.579065 10.304693 0 20.137643-2.837628 28.504194-8.368598 15.19712-10.020214 23.966854-27.843138 23.966854-48.784076l0-72.607668 121.014144 0c40.038902 0 72.609715-32.570813 72.609715-72.610738L644.851239 544.628118c0-13.376659-10.872628-24.202215-24.203238-24.202215-13.329587 0-24.203238 10.825556-24.203238 24.202215l0 193.624882c0 13.378705-10.872628 24.204262-24.202215 24.204262L451.22738 762.457262 451.22738 302.599829c0-36.116569-26.000164-75.516928-59.161425-89.698928l-185.965435-79.721693 366.142028 0c13.329587 0 24.202215 10.849092 24.202215 24.202215l0 193.623859c0 13.354146 10.873652 24.203238 24.203238 24.203238L620.648001 375.256616zM372.991528 257.431094c15.59928 6.689353 29.829376 28.268834 29.829376 45.216831l0 580.8726c0 5.01113-1.350764 7.846712-2.177596 8.367575-0.825808 0.518816-3.921309 0.707105-8.577353-1.27504L142.210397 783.493367c-15.59928-6.66684-29.828352-28.173666-29.828352-45.192272L112.382045 157.429519c0-3.829212 0.874927-7.398504 2.460028-10.637268L372.991528 257.431094z" p-id="3862"></path><path d="M952.398754 430.729022l-145.217383-145.219429c-9.408277-9.429767-24.772196-9.429767-34.224476 0-9.408277 9.431813-9.408277 24.794709 0 34.225499l103.899348 103.878882L572.241524 423.613974c-13.356193 0-24.202215 10.850116-24.202215 24.203238 0 13.353123 10.847046 24.202215 24.202215 24.202215l304.614719 0L772.956895 575.875796c-9.408277 9.454326-9.408277 24.816199 0 34.225499 4.774747 4.773723 10.965749 7.089465 17.156752 7.089465 6.195096 0 12.386098-2.364861 17.159822-7.089465l145.217383-145.19487c9.4093-9.431813 9.4093-24.794709 0-34.225499L952.398754 430.729022z" p-id="3863"></path></svg>